#!OML:ASF F:\VICON\USERDATA\INSTALL\rory3\rory3.ASF
:FULLY-SPECIFIED
:DEGREES
393
root -0.622407 16.9529 18.7599 8.55376 0.25797 -6.2151
lowerback -2.47647 3.3058 5.21732
upperback -2.17796 4.33375 2.48791
thorax -0.664695 2.12472 -0.26879
lowerneck -17.6384 0.555147 1.28833
upperneck 40.747 2.31422 -4.02417
head 18.3473 0.609717 -1.64483
rclavicle 1.60767e-014 1.63003e-014
rhumerus -33.0342 -14.0489 -70.1461
rradius 29.3228
rwrist -15.2601
rhand -6.60949 13.095
rfingers 7.12502
rthumb 19.2464 -15.9727
lclavicle 1.60767e-014 1.63003e-014
lhumerus -57.0367 34.5825 51.7734
lradius 24.6821
lwrist -9.04278
lhand 1.27132 19.5353
lfingers 7.12502
lthumb 26.8075 47.6553
rfemur 10.8855 13.7727 32.3869
rtibia -3.18055e-015
rfoot -8.49071 -21.4955
rtoes -8.39625
lfemur -40.2559 -12.0893 -8.16176
ltibia 23.709
lfoot -22.7085 20.6686
ltoes -14.503
394
root -0.572308 16.9331 18.9049 8.68493 0.709121 -6.0729
lowerback -2.57985 3.19866 5.48774
upperback -2.38557 4.18816 2.30234
thorax -0.79511 2.04176 -0.61225
lowerneck -17.7493 0.602057 1.29969
upperneck 41.0306 2.32532 -3.85084
head 18.5449 0.640427 -1.57098
rclavicle 7.97623e-015 1.55052e-014
rhumerus -33.2382 -14.4438 -69.938
rradius 29.0766
rwrist -14.4477
rhand -6.59338 12.7296
rfingers 7.12502
rthumb 19.2619 -16.3365
lclavicle 7.97623e-015 1.55052e-014
lhumerus -56.6386 33.7042 52.5958
lradius 25.3749
lwrist -7.59113
lhand 1.15104 18.9503
lfingers 7.12502
lthumb 26.6924 47.088
rfemur 11.2515 13.2057 32.0619
rtibia -6.36111e-015
rfoot -8.32425 -21.1596
rtoes -9.58274
lfemur -40.5404 -12.1194 -8.55519
ltibia 24.0034
lfoot -22.2344 20.1218
ltoes -14.0527
395
root -0.55137 16.908 19.0607 8.59931 0.745449 -6.13037
lowerback -2.52299 3.18797 5.46165
upperback -2.53042 4.18664 2.29263
thorax -0.977612 2.03543 -0.616467
lowerneck -17.7436 0.642628 1.27313
upperneck 41.279 2.35172 -3.70647
head 18.6922 0.66799 -1.49864
rclavicle -4.09993e-014 3.18055e-015
rhumerus -33.5549 -14.5938 -69.7826
rradius 28.9511
rwrist -13.9435
rhand -6.80023 12.6479
rfingers 7.12502
rthumb 19.0629 -16.4379
lclavicle -4.09993e-014 3.18055e-015
lhumerus -56.7276 33.8438 52.1701
lradius 25.4898
lwrist -7.43701
lhand 0.768802 18.5787
lfingers 7.12502
lthumb 26.3265 46.7715
rfemur 11.884 13.0049 32.1167
rtibia 4.13472e-014
rfoot -8.30611 -20.8247
rtoes -10.8173
lfemur -40.3721 -11.8039 -8.66965
ltibia 24.2693
lfoot -21.8452 19.5484
ltoes -12.2881
396
root -0.525224 16.884 19.2294 8.57807 0.846366 -5.92898
lowerback -2.83657 3.1106 5.22847
upperback -2.60453 4.0668 2.18966
thorax -0.892341 1.97907 -0.580657
lowerneck -17.446 0.676342 1.38092
upperneck 41.2854 2.38219 -3.74759
head 18.6176 0.694107 -1.53094
rclavicle -4.05893e-014 2.38542e-015
rhumerus -33.6918 -14.6123 -69.8268
rradius 28.6098
rwrist -13.6685
rhand -6.84336 12.8805
rfingers 7.12502
rthumb 19.0215 -16.2094
lclavicle -4.05893e-014 2.38542e-015
lhumerus -56.7472 34.074 51.6955
lradius 25.5475
lwrist -7.06146
lhand 0.0508048 18.8832
lfingers 7.12502
lthumb 25.639 47.1769
rfemur 12.5477 12.7201 31.8785
rtibia 6.04305e-014
rfoot -8.11122 -20.533
rtoes -12.8511
lfemur -40.2146 -11.8562 -8.95274
ltibia 24.5111
lfoot -21.7147 19.1893
ltoes -10.8948
397
root -0.514814 16.8592 19.3974 8.52234 0.593982 -5.56809
lowerback -3.19424 3.15026 4.58818
upperback -2.54491 4.1045 2.06949
thorax -0.662514 2.01116 -0.326395
lowerneck -17.3623 0.671833 1.44156
upperneck 41.2634 2.36494 -3.78027
head 18.5817 0.692524 -1.56038
rclavicle -1.52816e-014 -2.34566e-014
rhumerus -33.6652 -14.7518 -69.9047
rradius 28.2994
rwrist -13.3382
rhand -6.85542 12.6315
rfingers 7.12502
rthumb 19.0099 -16.4595
lclavicle -1.52816e-014 -2.34566e-014
lhumerus -56.5099 34.2907 51.5498
lradius 25.8147
lwrist -6.45307
lhand -0.565724 19.613
lfingers 7.12502
lthumb 25.0484 47.9905
rfemur 13.281 12.7372 31.5324
rtibia 0
rfoot -7.90766 -20.2439
rtoes -14.0043
lfemur -39.8971 -11.7344 -9.371
ltibia 24.8662
lfoot -21.8177 19.0275
ltoes -9.3423
398
root -0.478599 16.8331 19.5593 8.44298 0.734669 -5.29727
lowerback -3.28692 3.11242 4.45229
upperback -2.59785 4.05288 1.89662
thorax -0.663607 1.98523 -0.42624
lowerneck -17.3735 0.636301 1.47619
upperneck 41.3965 2.29702 -3.76587
head 18.6629 0.673284 -1.57758
rclavicle -3.77318e-014 -1.33186e-014
rhumerus -33.8234 -15.0765 -69.8089
rradius 27.9448
rwrist -12.946
rhand -6.79685 12.5775
rfingers 7.12502
rthumb 19.0662 -16.508
lclavicle -3.77318e-014 -1.33186e-014
lhumerus -56.2758 34.3156 51.4674
lradius 25.9459
lwrist -5.87412
lhand -1.1779 19.542
lfingers 7.12502
lthumb 24.4617 48.0001
rfemur 12.3263 12.4044 31.1518
rtibia 2.9822
rfoot -9.12359 -20.0113
rtoes -14.5289
lfemur -39.5355 -11.6843 -10.004
ltibia 25.2573
lfoot -21.5211 18.9908
ltoes -9.26809
399
root -0.453542 16.8046 19.7368 8.41177 0.766841 -5.46154
lowerback -3.3524 3.17082 4.59868
upperback -2.83898 4.13326 1.83383
thorax -0.858267 2.01673 -0.57281
lowerneck -17.1644 0.626744 1.55357
upperneck 41.5171 2.21273 -3.65139
head 18.6728 0.671882 -1.55608
rclavicle -4.26269e-014 5.96354e-016
rhumerus -34.4943 -15.2984 -69.6287
rradius 27.7924
rwrist -12.6056
rhand -6.87573 13.0217
rfingers 7.12502
rthumb 18.9903 -16.0713
lclavicle -4.26269e-014 5.96354e-016
lhumerus -56.2719 34.1379 51.0645
lradius 25.7976
lwrist -5.63742
lhand -1.64182 19.1218
lfingers 7.12502
lthumb 24.0169 47.6392
rfemur 11.6279 12.2358 31.2893
rtibia 5.44624
rfoot -9.84445 -19.8094
rtoes -15.3593
lfemur -39.108 -11.3342 -10.1909
ltibia 25.64
lfoot -21.5184 18.7297
ltoes -7.8138
400
root -0.42704 16.773 19.9165 8.47393 0.684061 -5.4891
lowerback -3.71666 3.2407 4.56198
upperback -2.91337 4.20636 1.78322
thorax -0.727456 2.055 -0.582091
lowerneck -17.3476 0.632543 1.42499
upperneck 41.6145 2.18225 -3.4343
head 18.7756 0.668554 -1.43776
rclavicle -2.76435e-016 -3.37934e-015
rhumerus -34.96 -15.3474 -69.5355
rradius 27.9386
rwrist -12.4495
rhand -6.85007 13.2369
rfingers 7.12502
rthumb 19.015 -15.8536
lclavicle -2.76435e-016 -3.37934e-015
lhumerus -56.1694 34.506 50.5555
lradius 25.565
lwrist -5.67337
lhand -2.09391 19.3442
lfingers 7.12502
lthumb 23.5833 47.9181
rfemur 11.3847 12.1786 31.2464
rtibia 6.98529
rfoot -9.98489 -19.715
rtoes -16.278
lfemur -38.7515 -10.9467 -10.5339
ltibia 26.0734
lfoot -21.5828 18.669
ltoes -7.28785
401
root -0.396555 16.7493 20.0866 8.52618 0.564132 -5.14951
lowerback -4.30363 3.28074 4.2201
upperback -2.70624 4.22445 1.60946
thorax -0.196192 2.07848 -0.526632
lowerneck -17.7787 0.571228 1.17922
upperneck 41.6455 2.04785 -3.1371
head 18.8993 0.612909 -1.27984
rclavicle 7.35503e-015 1.15295e-014
rhumerus -34.8557 -15.7715 -69.5374
rradius 27.8656
rwrist -12.1214
rhand -6.71655 13.0083
rfingers 7.12502
rthumb 19.1434 -16.0696
lclavicle 7.35503e-015 1.15295e-014
lhumerus -55.4308 34.7554 50.9015
lradius 25.7348
lwrist -5.02489
lhand -2.38901 19.4987
lfingers 7.12502
lthumb 23.3002 48.1087
rfemur 11.2386 12.1065 30.7929
rtibia 8.26035
rfoot -9.9159 -19.6939
rtoes -15.2432
lfemur -38.4133 -10.8378 -11.1863
ltibia 26.5185
lfoot -21.6651 18.8899
ltoes -6.62833
402
root -0.37448 16.7382 20.2558 8.51444 0.326225 -4.90719
lowerback -3.84665 3.27273 3.77469
upperback -3.32642 4.27773 1.49337
thorax -1.11002 2.09063 -0.44854
lowerneck -17.0503 0.532143 1.12525
upperneck 41.8826 1.95865 -2.99407
head 18.8356 0.595672 -1.22288
rclavicle 1.75796e-014 9.64106e-015
rhumerus -36.0589 -15.3603 -69.4787
rradius 27.9357
rwrist -12.1541
rhand -6.71715 12.6841
rfingers 7.12502
rthumb 19.1428 -16.3938
lclavicle 1.75796e-014 9.64106e-015
lhumerus -56.0089 33.9255 50.6758
lradius 26.0648
lwrist -4.20012
lhand -2.8209 19.5059
lfingers 7.12502
lthumb 22.8858 48.1678
rfemur 11.2345 12.1416 30.5224
rtibia 9.37143
rfoot -9.81191 -19.2301
rtoes -14.1654
lfemur -38.0477 -10.6661 -11.6343
ltibia 26.9349
lfoot -21.0421 19.4645
ltoes -4.31579
403
root -0.355315 16.74 20.4275 8.56788 -0.0749645 -4.79332
lowerback -3.85239 3.35379 3.40532
upperback -3.60383 4.40446 1.42696
thorax -1.40992 2.15393 -0.318299
lowerneck -16.8541 0.51993 1.08004
upperneck 42.0419 1.92678 -2.90773
head 18.8765 0.589249 -1.18278
rclavicle -3.59664e-014 -6.55989e-015
rhumerus -36.7858 -15.1528 -69.5192
rradius 28.0078
rwrist -12.2011
rhand -6.74468 12.6117
rfingers 7.12502
rthumb 19.1164 -16.4688
lclavicle -3.59664e-014 -6.55989e-015
lhumerus -56.1682 33.9471 50.2462
lradius 25.975
lwrist -3.91983
lhand -3.44363 19.7388
lfingers 7.12502
lthumb 22.2881 48.4735
rfemur 11.4371 12.3649 30.3648
rtibia 9.96543
rfoot -9.39852 -18.0202
rtoes -11.3708
lfemur -37.8566 -10.1956 -11.9402
ltibia 27.418
lfoot -19.2887 20.0883
ltoes -3.513
